<?xml version="1.0" standalone="no"?><!DOCTYPE svg PUBLIC "-//W3C//DTD SVG 1.1//EN" "http://www.w3.org/Graphics/SVG/1.1/DTD/svg11.dtd" ><svg xmlns="http://www.w3.org/2000/svg"><metadata>Generated by Glyphter</metadata><defs><font id="Glyphter" horiz-adv-x="0"><font-face units-per-em="1024" ascent="1024" descent="0" font-family="Glyphter" font-weight="normal" /><missing-glyph horiz-adv-x="0" /><glyph unicode="&#x0041;" d="M446.618,1024C423.424,1024,403.098,1008.384,397.158,985.958C397.158,985.958,162.253,102.4,162.253,102.4C162.253,102.4,51.2,102.4,51.2,102.4C22.938,102.4,0,79.462,0,51.2C0,22.938,22.938,0,51.2,0C51.2,0,972.8,0,972.8,0C1001.114,0,1024,22.938,1024,51.2C1024,79.462,1001.114,102.4,972.8,102.4C972.8,102.4,877.517,102.4,877.517,102.4C877.517,102.4,642.611,985.958,642.611,985.958C636.672,1008.384,616.346,1024,593.152,1024C593.152,1024,446.618,1024,446.618,1024C446.618,1024,446.618,1024,446.618,1024M738.253,128C738.253,128,301.517,128,301.517,128C301.517,128,352.563,320,352.563,320C352.563,320,687.206,320,687.206,320C687.206,320,738.253,128,738.253,128C738.253,128,738.253,128,738.253,128M416.563,560.794C416.563,560.794,379.802,422.4,379.802,422.4C379.802,422.4,659.968,422.4,659.968,422.4C659.968,422.4,622.336,564.122,622.336,564.122C622.336,564.122,416.563,560.794,416.563,560.794C416.563,560.794,416.563,560.794,416.563,560.794M595.2,666.112C595.2,666.112,443.904,663.654,443.904,663.654C443.904,663.654,505.651,896,505.651,896C505.651,896,534.118,896,534.118,896C534.118,896,595.2,666.112,595.2,666.112C595.2,666.112,595.2,666.112,595.2,666.112" class="icon-wip"/><glyph unicode="&#x0042;" d="M1005.582,110.659C1005.582,110.659,706,409.981,706,409.981C762.496,489.437,787.063,587.19,774.883,683.906C762.703,780.622,714.604,869.201,640.175,932.124C565.746,995.098,470.378,1027.751,372.988,1023.657C275.598,1019.614,183.287,979.082,114.353,910.147C45.418,841.213,4.886,748.902,0.843,651.512C-3.251,554.122,29.402,458.754,92.376,384.325C155.299,309.896,243.878,261.797,340.594,249.617C437.31,237.385,535.063,262.004,614.519,318.5C614.519,318.5,913.841,18.918,913.841,18.918C926.022,6.79,942.504,0,959.712,0C976.919,0,993.402,6.79,1005.582,18.918C1017.658,31.15,1024.396,47.632,1024.396,64.788C1024.396,81.944,1017.658,98.427,1005.582,110.659C1005.582,110.659,1005.582,110.659,1005.582,110.659M130.42,634.926C130.42,686.187,145.606,736.307,174.113,778.912C202.568,821.517,243.048,854.74,290.422,874.332C337.743,893.976,389.885,899.107,440.109,889.104C490.384,879.101,536.566,854.429,572.847,818.2C609.077,781.918,633.748,735.737,643.752,685.461C653.755,635.237,648.624,583.096,628.98,535.774C609.388,488.401,576.164,447.921,533.559,419.466C490.955,390.959,440.834,375.773,389.574,375.773C320.846,375.773,254.917,403.088,206.3,451.653C157.735,500.27,130.42,566.199,130.42,634.926C130.42,634.926,130.42,634.926,130.42,634.926" class="icon-search"/><glyph unicode="&#x0043;" d="M512,128C724.07,128,896,299.93,896,512C896,724.07,724.07,896,512,896C299.93,896,128,724.07,128,512C128,299.93,299.93,128,512,128C512,128,512,128,512,128M512,0C794.778,0,1024,229.222,1024,512C1024,794.778,794.778,1024,512,1024C229.222,1024,0,794.778,0,512C0,229.222,229.222,0,512,0C512,0,512,0,512,0M472.474,437.453C469.197,437.453,466.33,438.477,463.872,440.525C461.414,442.982,460.186,445.85,460.186,449.126C460.186,451.584,460.186,454.042,460.186,456.499C460.186,458.957,460.186,461.21,460.186,463.258C462.643,477.594,467.354,490.496,474.317,501.965C481.69,513.843,490.086,524.698,499.507,534.528C509.338,544.358,518.758,553.574,527.77,562.176C536.781,570.778,544.358,579.174,550.502,587.366C557.056,595.968,560.538,604.57,560.947,613.171C561.766,622.182,559.923,629.76,555.418,635.904C551.322,642.048,545.382,646.758,537.6,650.035C530.227,653.312,522.24,654.95,513.638,654.95C497.254,654.95,484.352,651.059,474.931,643.277C465.51,635.494,458.752,624.026,454.656,608.87C453.427,604.365,451.379,600.678,448.512,597.811C445.645,595.354,441.344,594.125,435.61,594.125C435.61,594.125,360.653,594.125,360.653,594.125C356.557,594.125,353.075,595.558,350.208,598.426C347.341,601.702,345.907,605.798,345.907,610.714C346.317,627.098,350.208,643.072,357.581,658.637C365.363,674.202,376.422,688.333,390.758,701.03C405.504,714.138,423.731,724.378,445.44,731.75C467.149,739.533,492.339,743.424,521.011,743.424C551.731,743.424,577.126,739.738,597.197,732.365C617.677,724.992,633.651,715.366,645.12,703.488C656.998,691.61,665.395,678.912,670.31,665.395C675.226,652.288,677.478,640,677.069,628.531C676.25,613.786,673.178,600.474,667.853,588.595C662.528,576.717,655.77,565.658,647.578,555.418C639.795,545.587,631.398,535.962,622.387,526.541C613.786,517.53,605.798,508.314,598.426,498.893C591.053,489.882,585.523,480.256,581.837,470.016C581.018,467.149,580.198,464.282,579.379,461.414C578.56,458.957,577.946,456.294,577.536,453.427C575.078,448.102,572.416,444.006,569.549,441.139C567.091,438.682,563.405,437.453,558.49,437.453C558.49,437.453,472.474,437.453,472.474,437.453C472.474,437.453,472.474,437.453,472.474,437.453M473.702,307.2C469.197,307.2,465.51,308.634,462.643,311.501C459.776,314.778,458.342,318.464,458.342,322.56C458.342,322.56,458.342,392.602,458.342,392.602C458.342,396.698,459.776,400.179,462.643,403.046C465.51,406.323,469.197,407.962,473.702,407.962C473.702,407.962,552.346,407.962,552.346,407.962C556.851,407.962,560.538,406.323,563.405,403.046C566.682,400.179,568.32,396.698,568.32,392.602C568.32,392.602,568.32,322.56,568.32,322.56C568.32,318.464,566.682,314.778,563.405,311.501C560.538,308.634,556.851,307.2,552.346,307.2C552.346,307.2,473.702,307.2,473.702,307.2C473.702,307.2,473.702,307.2,473.702,307.2" class="icon-question"/><glyph unicode="&#x0044;" d="M943.158,592.842C943.158,592.842,592.842,592.842,592.842,592.842C592.842,592.842,592.842,943.158,592.842,943.158C592.842,964.608,584.327,985.142,569.182,1000.34C553.984,1015.485,533.45,1024,512,1024C490.55,1024,470.016,1015.485,454.818,1000.34C439.673,985.142,431.158,964.608,431.158,943.158C431.158,943.158,431.158,592.842,431.158,592.842C431.158,592.842,80.842,592.842,80.842,592.842C59.392,592.842,38.858,584.327,23.66,569.182C8.515,553.984,0,533.45,0,512C0,490.55,8.515,470.016,23.66,454.818C38.858,439.673,59.392,431.158,80.842,431.158C80.842,431.158,431.158,431.158,431.158,431.158C431.158,431.158,431.158,80.842,431.158,80.842C431.158,59.392,439.673,38.858,454.818,23.66C470.016,8.515,490.55,0,512,0C533.45,0,553.984,8.515,569.182,23.66C584.327,38.858,592.842,59.392,592.842,80.842C592.842,80.842,592.842,431.158,592.842,431.158C592.842,431.158,943.158,431.158,943.158,431.158C964.608,431.158,985.142,439.673,1000.34,454.818C1015.485,470.016,1024,490.55,1024,512C1024,533.45,1015.485,553.984,1000.34,569.182C985.142,584.327,964.608,592.842,943.158,592.842C943.158,592.842,943.158,592.842,943.158,592.842" class="icon-plus"/><glyph unicode="&#x0045;" d="M642.958,0.52C603.024,0.056,563.347,7.589,526.354,22.603C489.309,37.617,455.669,59.802,427.292,87.973C427.292,87.973,88.316,426.95,88.316,426.95C-35.511,549.745,-26.998,757.155,105.084,889.237C105.084,889.237,222.462,1005.325,222.462,1005.325C228.447,1011.31,235.567,1016.108,243.409,1019.359C251.252,1022.609,259.662,1024.26,268.123,1024.26C276.585,1024.26,284.995,1022.609,292.837,1019.359C300.679,1016.108,307.799,1011.31,313.784,1005.325C313.784,1005.325,532.029,786.564,532.029,786.564C538.014,780.579,542.813,773.459,546.063,765.617C549.314,757.774,550.965,749.364,550.965,740.903C550.965,732.441,549.314,724.031,546.063,716.189C542.813,708.347,538.014,701.227,532.029,695.242C532.029,695.242,430.904,594.89,430.904,594.89C430.904,594.89,595.233,430.819,595.233,430.819C595.233,430.819,695.584,531.171,695.584,531.171C707.658,543.244,724.065,550.003,741.142,550.003C758.169,550.003,774.576,543.244,786.649,531.171C786.649,531.171,1005.668,312.152,1005.668,312.152C1017.741,300.079,1024.5,283.671,1024.5,266.594C1024.5,249.567,1017.741,233.16,1005.668,221.087C1005.668,221.087,889.322,104.741,889.322,104.741C824.261,38.752,735.622,1.243,642.958,0.52C642.958,0.52,642.958,0.52,642.958,0.52M196.665,797.915C114.887,716.137,107.406,591.536,179.896,518.272C179.896,518.272,518.357,179.296,518.357,179.296C590.847,106.805,716.48,114.286,798.258,196.064C798.258,196.064,868.684,266.49,868.684,266.49C868.684,266.49,741.246,395.477,741.246,395.477C741.246,395.477,640.894,295.383,640.894,295.383C634.909,289.398,627.789,284.6,619.947,281.35C612.104,278.099,603.694,276.448,595.233,276.448C586.771,276.448,578.361,278.099,570.519,281.35C562.677,284.6,555.557,289.398,549.572,295.383C549.572,295.383,294.178,550.777,294.178,550.777C288.193,556.762,283.395,563.83,280.196,571.673C276.946,579.463,275.243,587.822,275.243,596.283C275.243,604.745,276.946,613.155,280.196,620.945C283.395,628.788,288.193,635.856,294.178,641.841C294.178,641.841,394.53,742.193,394.53,742.193C394.53,742.193,266.833,868.599,266.833,868.599C266.833,868.599,196.665,797.915,196.665,797.915C196.665,797.915,196.665,797.915,196.665,797.915" class="icon-phone"/><glyph unicode="&#x0046;" d="M1005.78,837.621C1005.78,837.621,837.588,1005.812,837.588,1005.812C825.608,1017.793,809.326,1024.5,792.379,1024.5C775.483,1024.5,759.201,1017.793,747.221,1005.812C747.221,1005.812,70.359,328.95,70.359,328.95C61.911,320.553,56.023,309.904,53.463,298.23C53.463,298.23,2.263,79.095,2.263,79.095C0.01,69.725,-0.092,59.946,2.007,50.525C4.106,41.104,8.304,32.247,14.295,24.669C20.285,17.143,27.914,10.999,36.567,6.801C45.271,2.653,54.794,0.452,64.471,0.503C69.386,0.452,74.301,1.066,79.063,2.295C79.063,2.295,298.198,53.495,298.198,53.495C309.871,56.055,320.521,61.943,328.918,70.391C328.918,70.391,1005.78,747.253,1005.78,747.253C1017.761,759.234,1024.468,775.515,1024.468,792.411C1024.468,809.358,1017.761,825.64,1005.78,837.621C1005.78,837.621,1005.78,837.621,1005.78,837.621M792.276,870.9C792.276,870.9,869.076,794.101,869.076,794.101C869.076,794.101,806.868,729.333,806.868,729.333C806.868,729.333,730.069,806.133,730.069,806.133C730.069,806.133,792.276,870.9,792.276,870.9C792.276,870.9,792.276,870.9,792.276,870.9M251.35,173.814C251.35,173.814,148.95,150.263,148.95,150.263C148.95,150.263,172.502,251.382,172.502,251.382C172.502,251.382,638.677,717.301,638.677,717.301C638.677,717.301,715.477,640.501,715.477,640.501C715.477,640.501,251.35,173.814,251.35,173.814C251.35,173.814,251.35,173.814,251.35,173.814" class="icon-pencil"/><glyph unicode="&#x0047;" d="M943.158,593.184C943.158,593.184,80.842,593.184,80.842,593.184C59.392,593.184,38.858,584.669,23.66,569.524C8.515,554.326,0,533.792,0,512.342C0,490.892,8.515,470.358,23.66,455.16C38.858,440.015,59.392,431.5,80.842,431.5C80.842,431.5,943.158,431.5,943.158,431.5C964.608,431.5,985.142,440.015,1000.34,455.16C1015.485,470.358,1024,490.892,1024,512.342C1024,533.792,1015.485,554.326,1000.34,569.524C985.142,584.669,964.608,593.184,943.158,593.184C943.158,593.184,943.158,593.184,943.158,593.184" class="icon-minus"/><glyph unicode="&#x0048;" d="M960,921.7C960,921.7,64,921.7,64,921.7C47.002,921.7,30.771,914.942,18.739,902.961C6.758,890.929,0,874.698,0,857.7C0,857.7,0,166.5,0,166.5C0,149.553,6.758,133.271,18.739,121.239C30.771,109.258,47.002,102.5,64,102.5C64,102.5,960,102.5,960,102.5C976.947,102.5,993.229,109.258,1005.261,121.239C1017.242,133.271,1024,149.553,1024,166.5C1024,166.5,1024,857.7,1024,857.7C1024,874.698,1017.242,890.929,1005.261,902.961C993.229,914.942,976.947,921.7,960,921.7C960,921.7,960,921.7,960,921.7M893.952,793.7C893.952,793.7,512,491.364,512,491.364C512,491.364,130.048,793.7,130.048,793.7C130.048,793.7,893.952,793.7,893.952,793.7C893.952,793.7,893.952,793.7,893.952,793.7M128,230.5C128,230.5,128,631.908,128,631.908C128,631.908,472.32,358.5,472.32,358.5C483.584,349.54,497.613,344.625,512,344.625C526.387,344.625,540.416,349.54,551.68,358.5C551.68,358.5,896,631.908,896,631.908C896,631.908,896,230.5,896,230.5C896,230.5,128,230.5,128,230.5C128,230.5,128,230.5,128,230.5" class="icon-mail"/><glyph unicode="&#x0049;" d="M512.507,464.379C520.903,464.379,529.249,466.018,536.98,469.243C544.762,472.469,551.828,477.179,557.767,483.118C563.706,489.057,568.416,496.123,571.642,503.905C574.867,511.636,576.506,519.982,576.506,528.378C576.506,528.378,576.506,720.376,576.506,720.376C576.506,737.323,569.748,753.604,557.767,765.636C545.735,777.617,529.454,784.375,512.507,784.375C495.508,784.375,479.278,777.617,467.246,765.636C455.266,753.604,448.507,737.323,448.507,720.376C448.507,720.376,448.507,528.378,448.507,528.378C448.507,519.982,450.146,511.636,453.371,503.905C456.597,496.123,461.307,489.057,467.246,483.118C473.186,477.179,480.251,472.469,488.033,469.243C495.764,466.018,504.11,464.379,512.507,464.379C512.507,464.379,512.507,464.379,512.507,464.379M512.507,230.91C554.9,230.91,589.306,265.265,589.306,307.709C589.306,350.102,554.9,384.508,512.507,384.508C470.114,384.508,435.708,350.102,435.708,307.709C435.708,265.265,470.114,230.91,512.507,230.91C512.507,230.91,512.507,230.91,512.507,230.91M512.507,1024.5C411.234,1024.5,312.266,994.446,228.043,938.229C143.871,881.961,78.234,801.988,39.476,708.447C0.718,614.854,-9.419,511.943,10.344,412.617C30.107,313.29,78.848,222.053,150.476,150.476C222.053,78.848,313.29,30.107,412.617,10.344C511.943,-9.419,614.905,0.718,708.447,39.476C801.988,78.234,881.961,143.871,938.229,228.043C994.446,312.266,1024.5,411.234,1024.5,512.507C1024.5,648.287,970.536,778.538,874.537,874.537C778.538,970.536,648.287,1024.5,512.507,1024.5C512.507,1024.5,512.507,1024.5,512.507,1024.5C512.507,1024.5,512.507,1024.5,512.507,1024.5M512.507,128.512C436.578,128.512,362.339,151.039,299.159,193.228C236.03,235.416,186.828,295.37,157.746,365.565C128.665,435.708,121.088,512.916,135.884,587.411C150.681,661.906,187.288,730.309,240.997,784.017C294.705,837.725,363.107,874.281,437.602,889.129C512.097,903.926,589.306,896.348,659.449,867.267C729.643,838.186,789.597,788.983,831.786,725.854C873.974,662.674,896.502,588.435,896.502,512.507C896.502,462.075,886.569,412.156,867.267,365.565C847.965,318.973,819.703,276.631,784.017,240.997C748.382,205.311,706.04,177.049,659.449,157.746C612.857,138.444,562.938,128.512,512.507,128.512C512.507,128.512,512.507,128.512,512.507,128.512" class="icon-alert"/><glyph unicode="&#x004a;" d="M512.1,710.4C493.105,710.4,474.57,704.768,458.75,694.221C442.98,683.674,430.692,668.672,423.422,651.162C416.151,633.6,414.257,614.298,417.943,595.661C421.63,577.024,430.794,559.923,444.209,546.509C457.623,533.094,474.724,523.93,493.361,520.243C511.998,516.557,531.3,518.451,548.81,525.722C566.372,532.992,581.374,545.28,591.921,561.05C602.468,576.87,608.1,595.405,608.1,614.4C608.1,639.846,597.962,664.269,579.991,682.291C561.969,700.262,537.546,710.4,512.1,710.4C512.1,710.4,512.1,710.4,512.1,710.4M512.1,896C586.801,896,658.43,866.355,711.217,813.517C764.004,760.73,793.7,689.101,793.7,614.4C793.7,478.208,647.524,288,512.1,165.376C376.676,288,230.5,478.208,230.5,614.4C230.5,689.101,260.145,760.73,312.983,813.517C365.77,866.355,437.399,896,512.1,896C512.1,896,512.1,896,512.1,896M512.1,1024C403.454,1024,299.262,980.838,222.462,904.038C145.662,827.238,102.5,723.046,102.5,614.4C102.5,388.096,351.588,117.76,512.1,0C672.612,117.76,921.7,388.096,921.7,614.4C921.7,723.046,878.538,827.238,801.738,904.038C724.938,980.838,620.746,1024,512.1,1024C512.1,1024,512.1,1024,512.1,1024C512.1,1024,512.1,1024,512.1,1024" class="icon-location"/><glyph unicode="&#x004b;" d="M512.507,560.634C495.508,560.634,479.278,553.876,467.246,541.895C455.266,529.863,448.507,513.633,448.507,496.635C448.507,496.635,448.507,304.637,448.507,304.637C448.507,287.639,455.266,271.409,467.246,259.377C479.278,247.396,495.508,240.638,512.507,240.638C529.505,240.638,545.735,247.396,557.767,259.377C569.748,271.409,576.506,287.639,576.506,304.637C576.506,304.637,576.506,496.635,576.506,496.635C576.506,513.633,569.748,529.863,557.767,541.895C545.735,553.876,529.454,560.634,512.507,560.634C512.507,560.634,512.507,560.634,512.507,560.634M512.507,640.505C554.9,640.505,589.306,674.911,589.306,717.304C589.306,759.697,554.9,794.103,512.507,794.103C470.114,794.103,435.708,759.697,435.708,717.304C435.708,674.911,470.114,640.505,512.507,640.505C512.507,640.505,512.507,640.505,512.507,640.505M512.507,1024.5C411.234,1024.5,312.266,994.497,228.043,938.229C143.871,881.961,78.234,801.988,39.476,708.447C0.718,614.905,-9.419,511.943,10.344,412.617C30.107,313.29,78.848,222.104,150.476,150.476C222.053,78.848,313.29,30.107,412.617,10.344C511.943,-9.419,614.905,0.718,708.447,39.476C801.988,78.234,881.961,143.871,938.229,228.043C994.497,312.266,1024.5,411.234,1024.5,512.507C1024.5,648.287,970.536,778.538,874.537,874.537C778.538,970.536,648.287,1024.5,512.507,1024.5C512.507,1024.5,512.507,1024.5,512.507,1024.5C512.507,1024.5,512.507,1024.5,512.507,1024.5M512.507,128.512C436.578,128.512,362.339,151.039,299.159,193.228C236.03,235.416,186.828,295.37,157.746,365.565C128.665,435.708,121.088,512.916,135.884,587.411C150.732,661.906,187.288,730.309,240.997,784.017C294.705,837.725,363.107,874.332,437.602,889.129C512.097,903.926,589.306,896.348,659.449,867.267C729.643,838.186,789.597,788.983,831.786,725.854C873.974,662.674,896.502,588.435,896.502,512.507C896.502,462.075,886.569,412.156,867.267,365.565C847.965,318.973,819.703,276.631,784.017,240.997C748.382,205.311,706.04,177.049,659.449,157.746C612.857,138.444,562.938,128.512,512.507,128.512C512.507,128.512,512.507,128.512,512.507,128.512" class="icon-info"/><glyph unicode="&#x004d;" d="M512.507,1024C411.234,1024,312.266,993.997,228.043,937.729C143.871,881.461,78.234,801.488,39.476,707.947C0.718,614.405,-9.419,511.443,10.344,412.117C30.107,312.79,78.848,221.604,150.476,149.976C222.053,78.348,313.29,29.607,412.617,9.844C511.943,-9.919,614.905,0.218,708.447,38.976C801.988,77.734,881.961,143.371,938.229,227.543C994.497,311.766,1024.5,410.734,1024.5,512.007C1024.5,647.787,970.536,778.038,874.537,874.037C778.538,970.036,648.287,1024,512.507,1024C512.507,1024,512.507,1024,512.507,1024C512.507,1024,512.507,1024,512.507,1024M892.662,563.206C892.662,563.206,784.631,563.206,784.631,563.206C779.818,665.758,747.716,765.187,691.704,851.202C745.668,822.633,792.106,781.622,827.024,731.498C861.993,681.425,884.47,623.724,892.662,563.206C892.662,563.206,892.662,563.206,892.662,563.206M461.307,848.386C461.307,848.386,461.307,563.206,461.307,563.206C461.307,563.206,343.293,563.206,343.293,563.206C354.813,705.796,407.292,793.603,461.307,848.386C461.307,848.386,461.307,848.386,461.307,848.386M461.307,460.807C461.307,460.807,461.307,162.827,461.307,162.827C405.756,218.634,351.229,310.537,342.269,460.807C342.269,460.807,461.307,460.807,461.307,460.807C461.307,460.807,461.307,460.807,461.307,460.807M563.706,162.827C563.706,162.827,563.706,460.807,563.706,460.807C563.706,460.807,682.744,460.807,682.744,460.807C673.785,310.537,619.257,218.634,563.706,162.827C563.706,162.827,563.706,162.827,563.706,162.827M563.706,563.206C563.706,563.206,563.706,848.386,563.706,848.386C617.721,793.603,670.201,705.796,681.72,563.206C681.72,563.206,563.706,563.206,563.706,563.206C563.706,563.206,563.706,563.206,563.706,563.206M333.309,851.202C277.297,765.187,245.195,665.758,240.382,563.206C240.382,563.206,132.352,563.206,132.352,563.206C140.543,623.724,163.02,681.425,197.989,731.498C232.907,781.622,279.345,822.633,333.309,851.202C333.309,851.202,333.309,851.202,333.309,851.202M132.352,460.807C132.352,460.807,240.126,460.807,240.126,460.807C243.045,361.737,270.59,264.97,320.253,179.211C269.566,208.753,226.302,249.456,193.74,298.249C161.177,347.094,140.185,402.645,132.352,460.807C132.352,460.807,132.352,460.807,132.352,460.807M704.76,179.211C754.475,264.97,781.969,361.737,784.887,460.807C784.887,460.807,892.662,460.807,892.662,460.807C884.828,402.645,863.888,347.042,831.274,298.249C798.711,249.456,755.447,208.753,704.76,179.211C704.76,179.211,704.76,179.211,704.76,179.211" class="icon-globe"/><glyph unicode="&#x004e;" d="M903.78,646.144C903.78,646.144,558.18,1004.544,558.18,1004.544C552.19,1010.688,545.022,1015.552,537.086,1018.88C529.201,1022.259,520.702,1023.949,512.1,1024C512.1,1024,166.5,1024,166.5,1024C149.502,1024,133.271,1017.242,121.239,1005.261C109.258,993.229,102.5,976.998,102.5,960C102.5,960,102.5,64,102.5,64C102.5,47.053,109.258,30.771,121.239,18.739C133.271,6.758,149.502,0,166.5,0C166.5,0,857.7,0,857.7,0C874.647,0,890.929,6.758,902.961,18.739C914.942,30.771,921.7,47.053,921.7,64C921.7,64,921.7,601.6,921.7,601.6C921.7,618.189,915.3,634.163,903.78,646.144C903.78,646.144,903.78,646.144,903.78,646.144M563.3,814.592C563.3,814.592,732.516,640,732.516,640C732.516,640,563.3,640,563.3,640C563.3,640,563.3,814.592,563.3,814.592C563.3,814.592,563.3,814.592,563.3,814.592M230.5,128C230.5,128,230.5,896,230.5,896C230.5,896,435.3,896,435.3,896C435.3,896,435.3,575.232,435.3,575.232C435.505,558.387,442.314,542.31,454.295,530.483C466.276,518.656,482.455,512,499.3,512C499.3,512,793.7,512,793.7,512C793.7,512,793.7,128,793.7,128C793.7,128,230.5,128,230.5,128C230.5,128,230.5,128,230.5,128" class="icon-document"/><glyph unicode="&#x004f;" d="M609.951,512.389C609.951,512.389,1003.69,906.129,1003.69,906.129C1016.695,919.134,1024,936.732,1024,955.104C1024,973.477,1016.695,991.075,1003.69,1004.08C990.686,1017.085,973.088,1024.389,954.715,1024.389C936.342,1024.389,918.744,1017.085,905.74,1004.08C905.74,1004.08,512,610.34,512,610.34C512,610.34,118.26,1004.08,118.26,1004.08C105.256,1017.085,87.658,1024.389,69.285,1024.389C50.912,1024.389,33.314,1017.085,20.31,1004.08C7.305,991.075,0,973.477,0,955.104C0,936.732,7.305,919.134,20.31,906.129C20.31,906.129,414.049,512.389,414.049,512.389C414.049,512.389,20.31,118.65,20.31,118.65C7.415,105.589,0.221,87.992,0.221,69.674C0.221,51.357,7.415,33.759,20.31,20.699C33.314,7.749,50.912,0.5,69.285,0.5C87.658,0.5,105.256,7.749,118.26,20.699C118.26,20.699,512,414.439,512,414.439C512,414.439,905.74,20.699,905.74,20.699C918.744,7.749,936.342,0.5,954.715,0.5C973.088,0.5,990.686,7.749,1003.69,20.699C1016.585,33.759,1023.779,51.357,1023.779,69.674C1023.779,87.992,1016.585,105.589,1003.69,118.65C1003.69,118.65,609.951,512.389,609.951,512.389C609.951,512.389,609.951,512.389,609.951,512.389" class="icon-close"/><glyph unicode="&#x0050;" d="M525.306,784.375C516.91,784.426,508.564,782.788,500.782,779.562C493,776.388,485.934,771.678,479.995,765.687C474.005,759.748,469.294,752.683,466.12,744.9C462.894,737.118,461.256,728.773,461.307,720.376C461.307,720.376,461.307,515.579,461.307,515.579C461.307,515.579,350.461,413.18,350.461,413.18C337.917,401.711,330.493,385.737,329.725,368.739C329.008,351.792,334.999,335.203,346.518,322.66C357.987,310.167,373.961,302.692,390.908,301.975C407.906,301.207,424.444,307.249,436.988,318.717C436.988,318.717,568.57,439.548,568.57,439.548C575.175,445.538,580.397,452.859,583.981,461C587.565,469.192,589.357,477.998,589.306,486.907C589.306,486.907,589.306,720.376,589.306,720.376C589.357,728.773,587.718,737.118,584.493,744.9C581.319,752.683,576.608,759.748,570.618,765.687C564.679,771.678,557.613,776.388,549.831,779.562C542.049,782.788,533.703,784.426,525.306,784.375C525.306,784.375,525.306,784.375,525.306,784.375M512.507,1024.5C411.234,1024.5,312.266,994.446,228.043,938.229C143.871,881.961,78.234,801.988,39.476,708.447C0.718,614.905,-9.419,511.943,10.344,412.617C30.107,313.29,78.848,222.053,150.476,150.476C222.053,78.848,313.29,30.107,412.617,10.344C511.943,-9.419,614.854,0.718,708.447,39.476C801.988,78.234,881.961,143.871,938.229,228.043C994.446,312.266,1024.5,411.234,1024.5,512.507C1024.5,648.287,970.536,778.538,874.537,874.537C778.538,970.536,648.287,1024.5,512.507,1024.5C512.507,1024.5,512.507,1024.5,512.507,1024.5C512.507,1024.5,512.507,1024.5,512.507,1024.5M512.507,128.512C436.527,128.512,362.288,151.039,299.159,193.228C236.03,235.416,186.776,295.37,157.746,365.565C128.665,435.708,121.088,512.916,135.884,587.411C150.681,661.906,187.288,730.309,240.997,784.017C294.653,837.725,363.107,874.281,437.602,889.129C512.046,903.926,589.306,896.348,659.449,867.267C729.592,838.186,789.597,788.983,831.786,725.854C873.974,662.674,896.502,588.435,896.502,512.507C896.502,462.075,886.569,412.156,867.267,365.565C847.965,318.973,819.703,276.631,784.017,240.997C748.382,205.311,706.04,177.049,659.449,157.746C612.857,138.444,562.938,128.512,512.507,128.512C512.507,128.512,512.507,128.512,512.507,128.512" class="icon-clock"/><glyph unicode="&#x0051;" d="M950.974,219.559C941.378,219.559,931.84,221.372,922.946,225.059C914.052,228.745,905.977,234.129,899.189,240.916C899.189,240.916,512.117,627.988,512.117,627.988C512.117,627.988,125.045,240.916,125.045,240.916C118.257,234.129,110.182,228.745,101.288,225.059C92.394,221.372,82.856,219.5,73.26,219.5C53.833,219.5,35.226,227.165,21.475,240.916C7.724,254.667,0,273.275,0,292.701C0,312.128,7.724,330.736,21.475,344.487C21.475,344.487,460.332,783.344,460.332,783.344C474.141,796.977,492.749,804.584,512.117,804.584C531.485,804.584,550.093,796.977,563.902,783.344C563.902,783.344,1002.759,344.487,1002.759,344.487C1016.393,330.677,1024,312.07,1024,292.701C1024,273.333,1016.393,254.726,1002.759,240.916C995.972,234.129,987.897,228.745,979.003,225.059C970.108,221.372,960.571,219.559,950.974,219.559C950.974,219.559,950.974,219.559,950.974,219.559" class="icon-chevron-up"/><glyph unicode="&#x0052;" d="M292.772,0.001C283.174,-0.057,273.635,1.816,264.739,5.503C255.844,9.19,247.767,14.574,240.978,21.363C227.342,35.174,219.734,53.785,219.734,73.157C219.734,92.528,227.342,111.139,240.978,124.951C240.978,124.951,629.287,511.796,629.287,511.796C629.287,511.796,240.978,898.934,240.978,898.934C227.225,912.687,219.5,931.298,219.5,950.728C219.5,970.158,227.225,988.768,240.978,1002.522C254.732,1016.275,273.342,1024,292.772,1024C312.202,1024,330.813,1016.275,344.566,1002.522C344.566,1002.522,783.498,563.59,783.498,563.59C797.134,549.778,804.742,531.167,804.742,511.796C804.742,492.424,797.134,473.814,783.498,460.002C783.498,460.002,344.566,21.07,344.566,21.07C337.719,14.34,329.643,8.956,320.747,5.386C311.91,1.757,302.37,-0.057,292.772,0.001C292.772,0.001,292.772,0.001,292.772,0.001" class="icon-chevron-right"/><glyph unicode="&#x0053;" d="M731.324,0.001C721.729,-0.057,712.192,1.815,703.299,5.501C694.406,9.187,686.332,14.57,679.545,21.357C679.545,21.357,240.738,460.163,240.738,460.163C227.106,473.971,219.5,492.576,219.5,511.942C219.5,531.308,227.106,549.914,240.738,563.721C240.738,563.721,679.545,1002.528,679.545,1002.528C693.294,1016.277,711.899,1024,731.324,1024C750.748,1024,769.354,1016.277,783.103,1002.528C796.852,988.778,804.575,970.173,804.575,950.749C804.575,931.324,796.852,912.719,783.103,898.969C783.103,898.969,394.906,511.65,394.906,511.65C394.906,511.65,783.103,124.622,783.103,124.622C796.735,110.815,804.341,92.209,804.341,72.843C804.341,53.477,796.735,34.872,783.103,21.064C776.258,14.336,768.184,9.012,759.29,5.384C750.456,1.757,740.919,-0.057,731.324,0.001C731.324,0.001,731.324,0.001,731.324,0.001" class="icon-chevron-left"/><glyph unicode="&#x0054;" d="M512,219.501C502.406,219.443,492.87,221.315,483.978,225C475.086,228.686,467.013,234.068,460.227,240.854C460.227,240.854,21.47,679.611,21.47,679.611C7.722,693.359,0,711.962,0,731.384C0,750.807,7.722,769.41,21.47,783.158C35.218,796.905,53.821,804.627,73.243,804.627C92.665,804.627,111.269,796.905,125.016,783.158C125.016,783.158,512,395.882,512,395.882C512,395.882,898.984,783.158,898.984,783.158C912.731,796.905,931.335,804.627,950.757,804.627C970.179,804.627,988.782,796.905,1002.53,783.158C1016.278,769.41,1024,750.807,1024,731.384C1024,711.962,1016.278,693.359,1002.53,679.611C1002.53,679.611,563.773,240.854,563.773,240.854C556.987,234.068,548.914,228.686,540.022,225C531.13,221.315,521.594,219.443,512,219.501C512,219.501,512,219.501,512,219.501" class="icon-chevron-down"/><glyph unicode="&#x0055;" d="M295.139,116.001C286.743,115.95,278.398,117.588,270.617,120.813C262.835,124.039,255.77,128.749,249.832,134.687C249.832,134.687,19.455,365.064,19.455,365.064C13.363,370.951,8.5,378.067,5.121,385.849C1.793,393.681,0.052,402.077,0.001,410.576C-0.05,419.074,1.537,427.47,4.762,435.354C8.039,443.187,12.8,450.354,18.79,456.344C24.831,462.334,31.947,467.095,39.831,470.269C47.715,473.494,56.111,475.081,64.609,475.03C73.107,474.928,81.503,473.136,89.336,469.808C97.118,466.429,104.183,461.566,110.07,455.422C110.07,455.422,295.139,270.353,295.139,270.353C295.139,270.353,915.619,890.834,915.619,890.834C927.701,902.455,943.879,908.905,960.671,908.752C977.463,908.547,993.486,901.789,1005.312,889.912C1017.19,878.035,1023.896,862.011,1023.999,845.219C1024.152,828.427,1017.65,812.25,1005.978,800.219C1005.978,800.219,340.446,134.687,340.446,134.687C334.508,128.749,327.443,124.039,319.661,120.813C311.88,117.588,303.535,115.95,295.139,116.001C295.139,116.001,295.139,116.001,295.139,116.001" class="icon-check"/><glyph unicode="&#x0056;" d="M128,896C128,896,128,128,128,128C128,128,896,128,896,128C896,128,896,896,896,896C896,896,128,896,128,896C128,896,128,896,128,896M51.2,1024C22.938,1024,0,1001.062,0,972.8C0,972.8,0,51.2,0,51.2C0,22.938,22.938,0,51.2,0C51.2,0,972.8,0,972.8,0C1001.062,0,1024,22.938,1024,51.2C1024,51.2,1024,972.8,1024,972.8C1024,1001.062,1001.062,1024,972.8,1024C972.8,1024,51.2,1024,51.2,1024C51.2,1024,51.2,1024,51.2,1024M307.2,192C271.872,192,243.2,220.672,243.2,256C243.2,256,243.2,409.6,243.2,409.6C243.2,444.928,271.872,473.6,307.2,473.6C342.528,473.6,371.2,444.928,371.2,409.6C371.2,409.6,371.2,256,371.2,256C371.2,220.672,342.528,192,307.2,192C307.2,192,307.2,192,307.2,192M512,192C476.672,192,448,220.672,448,256C448,256,448,716.8,448,716.8C448,752.128,476.672,780.8,512,780.8C547.328,780.8,576,752.128,576,716.8C576,716.8,576,256,576,256C576,220.672,547.328,192,512,192C512,192,512,192,512,192M716.8,192C681.472,192,652.8,220.672,652.8,256C652.8,256,652.8,563.2,652.8,563.2C652.8,598.528,681.472,627.2,716.8,627.2C752.128,627.2,780.8,598.528,780.8,563.2C780.8,563.2,780.8,256,780.8,256C780.8,220.672,752.128,192,716.8,192C716.8,192,716.8,192,716.8,192" class="icon-chart"/><glyph unicode="&#x0057;" d="M182.065,179.5C182.065,179.5,512.511,765.282,512.511,765.282C512.511,765.282,842.906,179.5,842.906,179.5C842.906,179.5,182.065,179.5,182.065,179.5C182.065,179.5,182.065,179.5,182.065,179.5M467.916,946.786C487.73,981.858,537.241,981.858,557.055,946.786C557.055,946.786,1017.549,130.502,1017.549,130.502C1037.313,95.379,1012.583,51.5,972.954,51.5C972.954,51.5,52.017,51.5,52.017,51.5C12.439,51.5,-12.342,95.379,7.473,130.502C7.473,130.502,467.916,946.786,467.916,946.786C467.916,946.786,467.916,946.786,467.916,946.786M528.793,377.747C523.621,375.699,518.092,374.624,512.46,374.624C506.879,374.624,501.349,375.699,496.178,377.747C490.956,379.847,486.297,382.919,482.303,386.759C478.361,390.599,475.186,395.156,473.087,400.224C470.936,405.242,469.81,410.618,469.81,416.045C469.81,416.045,469.81,540.359,469.81,540.359C469.81,551.367,474.316,561.914,482.303,569.697C490.29,577.479,501.145,581.831,512.46,581.831C523.775,581.831,534.63,577.479,542.668,569.697C550.655,561.914,555.161,551.367,555.161,540.359C555.161,540.359,555.161,416.045,555.161,416.045C555.161,410.618,554.034,405.242,551.884,400.224C549.734,395.156,546.61,390.599,542.668,386.759C538.674,382.919,533.964,379.847,528.793,377.747C528.793,377.747,528.793,377.747,528.793,377.747M563.711,273.146C563.711,245.702,540.774,223.43,512.511,223.43C484.197,223.43,461.311,245.702,461.311,273.146C461.311,300.64,484.197,322.912,512.511,322.912C540.774,322.912,563.711,300.64,563.711,273.146C563.711,273.146,563.711,273.146,563.711,273.146" class="icon-caution"/><glyph unicode="&#x0058;" d="M1023.999,556.901C1023.999,556.901,1023.999,812.9,1023.999,812.9C1024.05,821.297,1022.412,829.643,1019.186,837.425C1016.012,845.207,1011.301,852.273,1005.311,858.212C999.372,864.203,992.306,868.913,984.524,872.087C976.741,875.313,968.396,876.951,959.999,876.9C959.999,876.9,819.199,876.9,819.199,876.9C819.199,876.9,819.199,953.7,819.199,953.7C819.199,970.698,812.441,986.929,800.46,998.961C788.428,1010.942,772.146,1017.7,755.199,1017.7C738.201,1017.7,721.97,1010.942,709.938,998.961C697.958,986.929,691.199,970.698,691.199,953.7C691.199,953.7,691.199,876.9,691.199,876.9C691.199,876.9,332.8,876.9,332.8,876.9C332.8,876.9,332.8,953.7,332.8,953.7C332.8,970.698,326.041,986.929,314.06,998.961C302.028,1010.942,285.798,1017.7,268.8,1017.7C251.801,1017.7,235.571,1010.942,223.539,998.961C211.558,986.929,204.8,970.698,204.8,953.7C204.8,953.7,204.8,876.9,204.8,876.9C204.8,876.9,64,876.9,64,876.9C47.053,876.798,30.771,870.091,18.688,858.212C6.81,846.129,0.102,829.847,0,812.9C0,812.9,0,70.501,0,70.501C0.102,53.554,6.81,37.272,18.688,25.189C30.771,13.311,47.053,6.604,64,6.501C64,6.501,959.999,6.501,959.999,6.501C968.396,6.45,976.741,8.088,984.524,11.314C992.306,14.488,999.372,19.199,1005.311,25.189C1011.301,31.128,1016.012,38.194,1019.186,45.976C1022.412,53.759,1024.05,62.104,1023.999,70.501C1023.999,70.501,1023.999,556.901,1023.999,556.901C1023.999,556.901,1023.999,556.901,1023.999,556.901M895.999,748.9C895.999,748.9,895.999,620.9,895.999,620.9C895.999,620.9,128,620.9,128,620.9C128,620.9,128,748.9,128,748.9C128,748.9,895.999,748.9,895.999,748.9C895.999,748.9,895.999,748.9,895.999,748.9M128,492.901C128,492.901,895.999,492.901,895.999,492.901C895.999,492.901,895.999,134.501,895.999,134.501C895.999,134.501,128,134.501,128,134.501C128,134.501,128,492.901,128,492.901C128,492.901,128,492.901,128,492.901" class="icon-calendar"/><glyph unicode="&#x0059;" d="M921.7,873.216C921.7,913.203,905.828,951.552,877.514,979.814C849.252,1008.128,810.903,1024,770.916,1024C770.916,1024,253.284,1024,253.284,1024C213.297,1024,174.948,1008.128,146.686,979.814C118.372,951.552,102.5,913.203,102.5,873.216C102.5,873.216,102.5,150.784,102.5,150.784C102.5,143.002,103.985,135.27,106.852,128C106.852,128,102.5,128,102.5,128C102.5,128,102.5,0,102.5,0C102.5,0,921.7,0,921.7,0C921.7,0,921.7,128,921.7,128C921.7,128,917.348,128,917.348,128C920.215,135.27,921.7,143.002,921.7,150.784C921.7,150.784,921.7,873.216,921.7,873.216C921.7,873.216,921.7,873.216,921.7,873.216M585.828,128C587.774,133.53,588.798,139.315,588.9,145.152C588.9,145.152,588.9,281.6,588.9,281.6C588.9,295.168,583.524,308.224,573.898,317.798C564.324,327.424,551.268,332.8,537.7,332.8C537.7,332.8,486.5,332.8,486.5,332.8C472.932,332.8,459.876,327.424,450.302,317.798C440.676,308.224,435.3,295.168,435.3,281.6C435.3,281.6,435.3,146.176,435.3,146.176C435.402,140.339,436.426,134.554,438.372,129.024C438.372,129.024,226.148,129.024,226.148,129.024C228.913,135.936,230.346,143.309,230.5,150.784C230.5,150.784,230.5,873.216,230.5,873.216C230.5,879.258,232.906,885.043,237.156,889.344C241.457,893.594,247.242,896,253.284,896C253.284,896,770.916,896,770.916,896C776.958,896,782.743,893.594,787.044,889.344C791.294,885.043,793.7,879.258,793.7,873.216C793.7,873.216,793.7,150.784,793.7,150.784C793.7,143.002,795.185,135.27,798.052,128C798.052,128,585.828,128,585.828,128C585.828,128,585.828,128,585.828,128M409.7,793.6C409.7,793.6,384.1,793.6,384.1,793.6C355.838,793.6,332.9,770.662,332.9,742.4C332.9,742.4,332.9,716.8,332.9,716.8C332.9,688.538,355.838,665.6,384.1,665.6C384.1,665.6,409.7,665.6,409.7,665.6C437.962,665.6,460.9,688.538,460.9,716.8C460.9,716.8,460.9,742.4,460.9,742.4C460.9,770.662,437.962,793.6,409.7,793.6C409.7,793.6,409.7,793.6,409.7,793.6M640.1,793.6C640.1,793.6,614.5,793.6,614.5,793.6C586.238,793.6,563.3,770.662,563.3,742.4C563.3,742.4,563.3,716.8,563.3,716.8C563.3,688.538,586.238,665.6,614.5,665.6C614.5,665.6,640.1,665.6,640.1,665.6C668.362,665.6,691.3,688.538,691.3,716.8C691.3,716.8,691.3,742.4,691.3,742.4C691.3,770.662,668.362,793.6,640.1,793.6C640.1,793.6,640.1,793.6,640.1,793.6M409.7,563.2C409.7,563.2,384.1,563.2,384.1,563.2C355.838,563.2,332.9,540.262,332.9,512C332.9,512,332.9,486.4,332.9,486.4C332.9,458.138,355.838,435.2,384.1,435.2C384.1,435.2,409.7,435.2,409.7,435.2C437.962,435.2,460.9,458.138,460.9,486.4C460.9,486.4,460.9,512,460.9,512C460.9,540.262,437.962,563.2,409.7,563.2C409.7,563.2,409.7,563.2,409.7,563.2M640.1,563.2C640.1,563.2,614.5,563.2,614.5,563.2C586.238,563.2,563.3,540.262,563.3,512C563.3,512,563.3,486.4,563.3,486.4C563.3,458.138,586.238,435.2,614.5,435.2C614.5,435.2,640.1,435.2,640.1,435.2C668.362,435.2,691.3,458.138,691.3,486.4C691.3,486.4,691.3,512,691.3,512C691.3,540.262,668.362,563.2,640.1,563.2C640.1,563.2,640.1,563.2,640.1,563.2" class="icon-building"/><glyph unicode="&#x005a;" d="M464.502,1005.331C464.502,1005.331,138.94,679.768,138.94,679.768C128.71,667.544,123.391,651.994,124.056,636.087C124.721,620.18,131.268,605.091,142.469,593.736C153.671,582.432,168.709,575.68,184.616,574.862C200.472,574.044,216.124,579.158,228.45,589.235C228.45,589.235,445.833,805.594,445.833,805.594C445.833,805.594,445.833,63.936,445.833,63.936C445.833,47.006,452.585,30.74,464.553,18.72C476.573,6.752,492.788,0,509.769,0C526.699,0,542.965,6.752,554.985,18.72C566.953,30.74,573.705,47.006,573.705,63.936C573.705,63.936,573.705,805.594,573.705,805.594C573.705,805.594,791.088,589.235,791.088,589.235C803.108,577.215,819.373,570.463,836.354,570.463C853.336,570.463,869.601,577.215,881.621,589.235C893.641,601.255,900.393,617.52,900.393,634.501C900.393,651.483,893.641,667.748,881.621,679.768C881.621,679.768,555.036,1005.331,555.036,1005.331C543.016,1017.3,526.751,1024,509.769,1024C492.788,1024,476.522,1017.3,464.502,1005.331C464.502,1005.331,464.502,1005.331,464.502,1005.331" class="icon-arrow-up"/><glyph unicode="&#x0061;" d="M1005.312,559.826C1005.312,559.826,679.424,885.714,679.424,885.714C667.187,895.954,651.622,901.279,635.699,900.614C619.776,899.948,604.672,893.394,593.306,882.182C581.99,870.969,575.232,855.916,574.413,839.993C573.542,824.121,578.714,808.454,588.8,796.114C588.8,796.114,805.376,579.538,805.376,579.538C805.376,579.538,64,579.538,64,579.538C47.002,579.538,30.771,572.78,18.739,560.799C6.758,548.767,0,532.537,0,515.538C0,498.591,6.758,482.31,18.739,470.278C30.771,458.297,47.002,451.538,64,451.538C64,451.538,806.4,451.538,806.4,451.538C806.4,451.538,588.8,232.914,588.8,232.914C576.768,220.882,570.01,204.601,570.01,187.602C570.01,170.604,576.768,154.322,588.8,142.29C600.832,130.258,617.114,123.5,634.112,123.5C651.11,123.5,667.392,130.258,679.424,142.29C679.424,142.29,1005.312,469.202,1005.312,469.202C1017.293,481.234,1024,497.516,1024,514.514C1024,531.513,1017.293,547.794,1005.312,559.826C1005.312,559.826,1005.312,559.826,1005.312,559.826" class="icon-arrow-right"/><glyph unicode="&#x0062;" d="M18.669,470.973C18.669,470.973,344.232,145.41,344.232,145.41C349.858,138.505,356.866,132.879,364.845,128.889C372.773,124.848,381.468,122.547,390.368,122.086C399.217,121.626,408.117,123.007,416.454,126.178C424.74,129.35,432.31,134.209,438.653,140.449C444.995,146.689,449.956,154.208,453.179,162.494C456.452,170.78,457.936,179.629,457.578,188.529C457.22,197.429,455.02,206.175,451.082,214.154C447.143,222.134,441.568,229.192,434.765,234.921C434.765,234.921,218.406,452.303,218.406,452.303C218.406,452.303,960.064,452.303,960.064,452.303C977.045,452.303,993.26,459.055,1005.28,471.024C1017.248,483.044,1024,499.309,1024,516.239C1024,533.17,1017.248,549.435,1005.28,561.455C993.26,573.424,977.045,580.176,960.064,580.176C960.064,580.176,218.406,580.176,218.406,580.176C218.406,580.176,434.765,797.558,434.765,797.558C444.842,809.885,449.956,825.537,449.138,841.393C448.32,857.3,441.568,872.338,430.264,883.539C418.909,894.741,403.82,901.288,387.913,901.953C372.006,902.618,356.456,897.298,344.232,887.069C344.232,887.069,18.669,561.506,18.669,561.506C6.7,549.486,0,533.221,0,516.239C0,499.258,6.7,482.993,18.669,470.973C18.669,470.973,18.669,470.973,18.669,470.973" class="icon-arrow-left"/><glyph unicode="&#x0063;" d="M553.467,18.688C553.467,18.688,879.355,344.576,879.355,344.576C886.267,350.208,891.899,357.222,895.892,365.21C899.937,373.146,902.241,381.85,902.702,390.758C903.163,399.616,901.78,408.525,898.606,416.87C895.432,425.165,890.568,432.742,884.321,439.091C878.075,445.44,870.548,450.406,862.254,453.632C853.96,456.909,845.102,458.394,836.193,458.035C827.284,457.677,818.529,455.475,810.542,451.533C802.555,447.59,795.489,442.01,789.755,435.2C789.755,435.2,572.155,218.624,572.155,218.624C572.155,218.624,572.155,960,572.155,960C572.155,976.998,565.396,993.229,553.416,1005.261C541.384,1017.242,525.102,1024,508.155,1024C491.208,1024,474.926,1017.242,462.894,1005.261C450.913,993.229,444.155,976.998,444.155,960C444.155,960,444.155,217.6,444.155,217.6C444.155,217.6,226.555,435.2,226.555,435.2C214.216,445.286,198.548,450.458,182.676,449.587C166.753,448.768,151.7,442.01,140.488,430.694C129.275,419.328,122.721,404.224,122.056,388.301C121.39,372.378,126.715,356.813,136.955,344.576C136.955,344.576,462.843,18.688,462.843,18.688C474.875,6.707,491.156,0,508.155,0C525.153,0,541.435,6.707,553.467,18.688C553.467,18.688,553.467,18.688,553.467,18.688" class="icon-arrow-down"/></font>
</defs>
</svg>
